PathFileType	4	(X/Y/Z)	Run_300 02
DataRate	CameraRate	NumFrames	NumMarkers	Units	OrigDataRate	OrigDataStartFrame	OrigNumFrames
100	100	4	45	mm	100	351	137
Frame#	Time	LASI			RASI			LPSI			RPSI			RTH1			RTH2			RTH3			LTH1			LTH2			LTH3			RTB1			RTB2			RTB3			RLMAL			RMMAL			LTB1			LTB2			LTB3			RCAL			RTOE			RMT5			LCAL			LTOE			LMT5			LACR			RACR			CLAV			C7			LPSH			RUA1			RUA2			RUA3			RLEL			RMEL			LUA1			LUA2			LUA3			LLEL			LMEL			RFAsuperior			RFAradius			RFAulna			LFAsuperior			LFAradius			LFAulna		
		X1	Y1	Z1	X2	Y2	Z2	X3	Y3	Z3	X4	Y4	Z4	X5	Y5	Z5	X6	Y6	Z6	X7	Y7	Z7	X8	Y8	Z8	X9	Y9	Z9	X10	Y10	Z10	X11	Y11	Z11	X12	Y12	Z12	X13	Y13	Z13	X14	Y14	Z14	X15	Y15	Z15	X16	Y16	Z16	X17	Y17	Z17	X18	Y18	Z18	X19	Y19	Z19	X20	Y20	Z20	X21	Y21	Z21	X22	Y22	Z22	X23	Y23	Z23	X24	Y24	Z24	X25	Y25	Z25	X26	Y26	Z26	X27	Y27	Z27	X28	Y28	Z28	X29	Y29	Z29	X30	Y30	Z30	X31	Y31	Z31	X32	Y32	Z32	X33	Y33	Z33	X34	Y34	Z34	X35	Y35	Z35	X36	Y36	Z36	X37	Y37	Z37	X38	Y38	Z38	X39	Y39	Z39	X40	Y40	Z40	X41	Y41	Z41	X42	Y42	Z42	X43	Y43	Z43	X44	Y44	Z44	X45	Y45	Z45	

351	  3.510000	911.735071	1049.158987	-436.041044	921.516720	1043.144565	-205.028612	747.437221	1089.032102	-366.269928	752.205367	1087.874814	-276.915973	801.849001	792.403515	-163.167025	859.649575	714.662892	-201.622321	773.777280	625.295550	-199.638283	878.064342	837.918213	-487.214907	1002.869865	780.503663	-484.558682	1003.054255	674.152016	-472.832920	731.911466	379.118181	-263.131192	669.864305	346.025244	-220.739801	621.974767	231.179442	-270.856446	528.792315	154.488363	-254.120037	553.409756	167.634240	-336.420872	1014.844470	475.714431	-438.083792	880.228819	467.697778	-456.414141	863.189071	357.920719	-423.013381	458.087860	149.076362	-317.379543	656.865783	 62.642339	-298.521039	591.479205	 59.645386	-226.593694	686.071133	322.992418	-370.232120	831.979649	156.469018	-406.928150	773.978944	188.214000	-469.962439	861.991473	1560.504255	-465.399210	916.309811	1526.731304	-156.409252	965.387933	1474.602424	-302.030953	850.113422	1566.924143	-301.994602	777.104273	1529.473887	-460.717690	887.115638	1372.758940	-68.255238	807.187635	1322.268250	-61.813067	825.396218	1265.036956	-25.589107	844.956521	1200.399222	-10.206095	792.229762	1189.232127	-83.876786	752.175016	1463.414345	-527.291791	679.795630	1401.611357	-507.487798	673.977585	1363.852412	-571.945088	655.828810	1292.355263	-602.967006	633.170043	1278.061436	-515.021468	896.096096	1159.423192	-53.221151	1037.368915	1227.134288	-176.053001	1044.037032	1159.774386	-166.287188	720.245403	1226.054889	-574.111901	883.250626	1256.159015	-518.138904	877.111914	1190.196977	-535.969215	
352	  3.520000	913.633114	1058.158244	-437.266841	924.569933	1049.797707	-207.743036	750.237402	1098.072782	-366.489172	755.614568	1096.128459	-277.280826	795.276793	800.952494	-163.621473	850.030971	721.310360	-201.509958	760.692127	635.438721	-197.719574	880.241340	847.588358	-488.835589	1005.216939	790.392581	-485.443945	1005.987886	683.761253	-473.550600	711.732282	389.410579	-259.191969	649.058314	357.247648	-216.594452	602.162247	241.362657	-266.924002	508.701286	163.804624	-251.395522	534.715100	176.791542	-332.904120	1026.697448	481.011957	-437.766573	893.534528	461.403409	-456.751902	885.490170	350.673144	-422.625557	439.647443	164.116190	-315.344790	627.082677	 61.728766	-297.522880	564.186184	 60.955713	-225.650261	711.717173	300.638088	-370.080183	871.774054	147.568534	-406.141714	811.201218	173.742823	-469.461744	859.124511	1568.374146	-466.038186	917.417269	1535.682889	-158.296581	965.904175	1483.753476	-304.349109	850.427961	1574.814406	-303.333862	774.419416	1537.717292	-459.148195	889.998752	1381.797609	-69.905642	810.387952	1330.987186	-62.931002	829.255623	1274.003635	-26.677903	849.505920	1209.158666	-11.804155	794.965238	1198.072461	-84.570438	747.131514	1472.744182	-523.565953	675.437803	1411.473828	-500.217159	666.161743	1374.572619	-565.022125	646.514246	1302.402748	-595.463707	626.944865	1289.130520	-506.414092	900.220150	1170.006213	-56.880242	1036.222788	1242.381723	-182.751682	1044.701204	1175.393226	-173.262473	711.968350	1236.673838	-567.447006	876.514754	1268.417172	-516.960238	870.234699	1202.107418	-532.851515	
353	  3.530000	915.394936	1067.371081	-438.916799	927.700834	1056.836200	-210.365653	753.139211	1107.022845	-366.775719	759.014159	1104.126268	-277.718927	789.873631	809.756456	-163.433860	841.708031	728.359540	-200.643261	749.006539	646.065377	-195.662270	881.553619	857.036312	-490.482779	1006.522244	799.359413	-486.383439	1007.597953	692.501830	-474.353255	693.792062	400.131081	-254.070792	629.980970	369.157543	-211.832849	584.616339	251.809445	-262.262900	490.771695	173.464978	-248.423800	519.154703	185.689510	-328.725900	1037.145133	485.522609	-437.571716	906.504296	454.081713	-456.946216	907.916790	343.074856	-422.051092	424.543737	179.899895	-313.429572	598.510862	 61.499027	-296.492094	537.306043	 62.886873	-224.716315	739.049456	277.953036	-369.606595	912.027817	139.531306	-404.873216	849.316135	159.784871	-468.491987	857.003609	1576.121126	-466.823393	918.540784	1544.420731	-160.177794	966.422129	1492.695449	-306.427907	850.922334	1582.661795	-304.794841	772.455747	1545.945598	-457.719280	892.273586	1391.043198	-71.433917	813.004008	1339.989417	-64.653310	831.972724	1283.301693	-27.922083	853.053007	1218.150164	-13.478845	796.984358	1207.070370	-85.400110	742.978326	1482.069007	-519.809247	672.223652	1421.163923	-493.106742	659.567613	1385.179982	-558.064964	638.078947	1312.240615	-587.232400	621.619227	1300.002219	-497.238073	903.393609	1180.335790	-60.245294	1034.561195	1256.525299	-188.883590	1044.677484	1189.875330	-179.541192	704.604686	1247.106622	-560.315399	870.623093	1279.987765	-515.754505	864.189133	1213.425842	-529.850555	
354	  3.540000	917.030579	1076.404400	-440.788687	930.851945	1063.897728	-212.716766	756.260738	1115.598995	-367.432925	762.330837	1111.557071	-278.272343	785.705319	818.306449	-163.059536	834.815748	735.384465	-199.312017	738.759738	656.693396	-193.932132	882.455429	866.099400	-492.194816	1007.042971	807.288708	-487.271723	1007.895531	700.055434	-475.037997	678.218882	410.814165	-248.313739	612.753529	381.323998	-207.049829	569.072810	262.184622	-257.411543	474.974651	183.527494	-245.316301	506.050736	194.472459	-324.289278	1046.065301	489.033791	-437.782269	918.914061	445.815352	-457.008627	930.307973	335.217011	-421.458557	412.416608	196.436147	-311.239945	571.232317	 62.494187	-295.581041	511.192582	 66.325686	-223.967182	767.960962	255.386514	-368.823360	952.507488	132.553495	-403.375717	888.057263	146.525822	-467.171392	855.520907	1583.597910	-467.752640	919.681289	1552.741337	-162.154695	966.835803	1501.115715	-308.280506	851.515886	1590.215620	-306.265475	771.207850	1554.005670	-456.565278	894.004832	1400.287785	-72.833381	815.120385	1349.062728	-66.464272	833.918103	1292.567525	-29.230222	855.735984	1227.053194	-15.147996	798.285214	1216.050741	-86.266665	739.781886	1491.168795	-516.529784	670.172886	1430.767701	-486.528180	654.157489	1395.318917	-551.010769	630.613575	1321.667745	-578.402999	617.393185	1310.515648	-487.741820	905.670413	1190.110127	-63.264248	1032.623472	1269.279078	-194.417747	1044.156123	1202.858354	-185.318117	698.164591	1257.060095	-552.851324	865.572110	1290.691967	-514.481519	858.954157	1223.925188	-527.115904	
